<?xml version="1.0" encoding="utf-8"?>
<!-- Generator: Adobe Illustrator 21.0.2, SVG Export Plug-In . SVG Version: 6.00 Build 0)  -->
<svg version="1.1" id="Layer_1" xmlns="http://www.w3.org/2000/svg" xmlns:xlink="http://www.w3.org/1999/xlink" x="0px" y="0px"
	 viewBox="0 0 16 16" style="enable-background:new 0 0 16 16;" xml:space="preserve">
<style type="text/css">
	.st0{fill:#E64E60;}
</style>
<title>favicon</title>
<g id="OPt-2">
	<g id="prog2_pro3_Mobile-Portrait_opt2-Copy-2">
		<g id="nav">
			<g>
				<g id="ic_home">
					<g id="Group">
						<path id="Shape" class="st0" d="M13.2,4.7l-0.6,0.4l-0.9,0.7c-0.1-0.6-0.5-1.2-1-1.5l1.8-1.4L12,2.2c-0.2-0.3-0.2-0.7,0.1-1
							L13.5,3C13.8,3.5,13.7,4.2,13.2,4.7L13.2,4.7z"/>
						<path id="Shape-2" class="st0" d="M7.5,10.9c2-1.1,3.8-1.3,4.2-0.6c0.4,0.6-0.3,1.7-1.5,2.9l1.2,1.9h0.8
							c0.4,0,0.7,0.3,0.6,0.7h-2.4L10,15.1L9.4,14l-0.3-0.4c0.1-0.2,0.1-0.3,0.1-0.5c0-0.6-0.4-1-1-1l0,0l0,0L7.5,10.9L7.5,10.9z"/>
						<path id="Shape-3" class="st0" d="M1.9,4.4C2,3.9,2.5,3.5,3,3.5c0.2,0,0.3,0,0.5,0.1c0.4,0.2,0.7,0.6,0.6,1v5.3
							c-0.1,0.4,0.1,0.7,0.5,0.8s0.7-0.1,0.8-0.5v-0.1L6,8.5L4.8,4.4l0,0V4.3C4.4,2.7,5.1,1,6.7,0.3l2.9,1c0.3,0.1,0.5,0.5,0.4,0.9
							L9.2,1.8C9,1.7,8.6,1.9,8.5,2.2s0,0.6,0.3,0.7l0.8,0.3C9.5,3.5,9.1,3.7,8.8,3.6c0,0,0,0-0.1,0L8,3.3C7.9,3.6,8.1,3.9,8.4,4
							l1.5,0.6C10.6,4.9,11,5.5,11,6.3v0.1c0,0,0,0,0,0.1l0,0h2.4v-1c0-0.3,0.3-0.5,0.5-0.6l0.2-0.1V7c0,0.6-0.5,1.2-1.2,1.2h-2.7
							c-0.2,0-0.5,0-0.7,0.1l0,0l0,0l0,0c-1.2,0.3-2.1,1.3-2.2,2.6V11c0,0.1,0,0.1,0,0.2c0,0.7,0.2,1.4,0.6,1.9L8,13.2
							c0.1,0.1,0.1,0.3,0.1,0.4c0,0.4-0.3,0.7-0.7,0.8l0,0c-0.1,0-0.3,0-0.4-0.1l-1.5-0.9C5.2,13.6,5,14,5.2,14.3c0,0,0,0.1,0.1,0.1
							L6,15.1h0.8c0.4,0,0.7,0.3,0.6,0.7H5.3c0-0.6-0.5-1.2-1.2-1.2v-2C4.7,12.5,5,12,5,11.4v-0.1H4.8c-0.3,0-0.5-0.1-0.7-0.2
							c-0.4-0.3-0.7-0.7-0.6-1.2V4.6c0-0.2-0.2-0.4-0.4-0.4S2.7,4.4,2.7,4.6C3.1,5,3.2,5.7,2.9,6.3c-0.3,0.3-0.6,0.5-1,0.5V4.6
							C1.9,4.6,1.9,4.5,1.9,4.4L1.9,4.4z"/>
					</g>
				</g>
			</g>
		</g>
	</g>
</g>
</svg>
